<svg xmlns="http://www.w3.org/2000/svg" viewBox="0 0 128 128" role="img" aria-labelledby="title">
  <title>Ikon bilik akademik</title>
  <defs>
    <linearGradient id="bg" x1="16" y1="18" x2="112" y2="114" gradientUnits="userSpaceOnUse">
      <stop stop-color="#DBEAFE"/>
      <stop offset="1" stop-color="#F5D0FE"/>
    </linearGradient>
    <filter id="shadow" x="-20%" y="-20%" width="140%" height="140%">
      <feDropShadow dx="0" dy="8" stdDeviation="6" flood-color="#1D4ED8" flood-opacity=".16"/>
    </filter>
  </defs>
  <rect x="10" y="10" width="108" height="108" rx="30" fill="url(#bg)"/>
  <g filter="url(#shadow)">
    <path d="M35 52h50a9 9 0 0 1 9 9v33a8 8 0 0 1-8 8H34a8 8 0 0 1-8-8V61a9 9 0 0 1 9-9Z" fill="#fff"/>
    <path d="M36 52h49a9 9 0 0 1 9 9v8H26v-8a9 9 0 0 1 10-9Z" fill="#93C5FD"/>
    <path d="M41 63h37M41 76h24M41 88h31" stroke="#60A5FA" stroke-width="5" stroke-linecap="round"/>
    <path d="m29 41 37-16 37 16-37 16-37-16Z" fill="#1E3A8A"/>
    <path d="M47 49v14c0 6 9 11 19 11s19-5 19-11V49L66 57 47 49Z" fill="#2563EB"/>
    <path d="M102 42v21" stroke="#1E3A8A" stroke-width="5" stroke-linecap="round"/>
    <circle cx="102" cy="67" r="5" fill="#FBBF24"/>
    <path d="M92 28c2 6 5 9 11 11-6 2-9 5-11 11-2-6-5-9-11-11 6-2 9-5 11-11Z" fill="#FDE68A"/>
  </g>
</svg>
