<svg xmlns="http://www.w3.org/2000/svg" viewBox="0 0 128 128" role="img" aria-labelledby="title">
  <title>Ikon bilik profesional</title>
  <defs>
    <linearGradient id="bg" x1="14" y1="14" x2="112" y2="116" gradientUnits="userSpaceOnUse">
      <stop stop-color="#EDE9FE"/>
      <stop offset="1" stop-color="#FCE7F3"/>
    </linearGradient>
    <filter id="shadow" x="-20%" y="-20%" width="140%" height="140%">
      <feDropShadow dx="0" dy="8" stdDeviation="6" flood-color="#7C3AED" flood-opacity=".16"/>
    </filter>
  </defs>
  <rect x="10" y="10" width="108" height="108" rx="30" fill="url(#bg)"/>
  <g filter="url(#shadow)">
    <path d="M39 42h49a12 12 0 0 1 12 12v37a12 12 0 0 1-12 12H39a12 12 0 0 1-12-12V54a12 12 0 0 1 12-12Z" fill="#8B5CF6"/>
    <path d="M51 42v-8c0-5 4-9 9-9h8c5 0 9 4 9 9v8" fill="none" stroke="#4C1D95" stroke-width="6" stroke-linecap="round"/>
    <path d="M27 65h73v14H27V65Z" fill="#A78BFA"/>
    <rect x="55" y="61" width="17" height="23" rx="5" fill="#FDE68A"/>
    <path d="M78 30h21c5 0 9 4 9 9v33" fill="#fff" opacity=".95"/>
    <path d="M87 45h12M87 56h12M87 67h8" stroke="#7C3AED" stroke-width="5" stroke-linecap="round"/>
    <path d="M44 25h10l5 10-10 21-10-21 5-10Z" fill="#F472B6"/>
  </g>
</svg>
