<svg xmlns="http://www.w3.org/2000/svg" viewBox="0 0 128 128" role="img" aria-labelledby="title">
  <title>Ikon bilik transaksi dan jasa</title>
  <defs>
    <linearGradient id="bg" x1="14" y1="14" x2="112" y2="116" gradientUnits="userSpaceOnUse">
      <stop stop-color="#FEF3C7"/>
      <stop offset="1" stop-color="#FED7AA"/>
    </linearGradient>
    <filter id="shadow" x="-20%" y="-20%" width="140%" height="140%">
      <feDropShadow dx="0" dy="8" stdDeviation="6" flood-color="#D97706" flood-opacity=".16"/>
    </filter>
  </defs>
  <rect x="10" y="10" width="108" height="108" rx="30" fill="url(#bg)"/>
  <g filter="url(#shadow)">
    <path d="M31 45h67v49a10 10 0 0 1-10 10H41a10 10 0 0 1-10-10V45Z" fill="#fff"/>
    <path d="M25 42h79l-8-18H33l-8 18Z" fill="#F59E0B"/>
    <path d="M32 42c0 8 12 8 12 0M44 42c0 8 12 8 12 0M56 42c0 8 12 8 12 0M68 42c0 8 12 8 12 0M80 42c0 8 12 8 12 0" fill="none" stroke="#B45309" stroke-width="4" stroke-linecap="round"/>
    <rect x="43" y="61" width="43" height="27" rx="8" fill="#FDE68A"/>
    <circle cx="56" cy="75" r="6" fill="#10B981"/>
    <path d="M69 70h11M69 80h8" stroke="#F59E0B" stroke-width="5" stroke-linecap="round"/>
    <path d="M96 70c10 0 16 5 16 13s-6 13-16 13" fill="none" stroke="#0EA5E9" stroke-width="6" stroke-linecap="round"/>
  </g>
</svg>
