<svg xmlns="http://www.w3.org/2000/svg" viewBox="0 0 128 128" role="img" aria-labelledby="title">
  <title>Ikon bilik mobilitas</title>
  <defs>
    <linearGradient id="bg" x1="12" y1="14" x2="112" y2="116" gradientUnits="userSpaceOnUse">
      <stop stop-color="#CFFAFE"/>
      <stop offset="1" stop-color="#DCFCE7"/>
    </linearGradient>
    <filter id="shadow" x="-20%" y="-20%" width="140%" height="140%">
      <feDropShadow dx="0" dy="8" stdDeviation="6" flood-color="#0891B2" flood-opacity=".16"/>
    </filter>
  </defs>
  <rect x="10" y="10" width="108" height="108" rx="30" fill="url(#bg)"/>
  <g filter="url(#shadow)">
    <path d="M33 38h55c9 0 15 7 15 15v31c0 5-4 9-9 9H28c-5 0-9-4-9-9V53c0-8 6-15 14-15Z" fill="#0EA5E9"/>
    <path d="M31 47h57c4 0 7 3 7 7v11H24V54c0-4 3-7 7-7Z" fill="#E0F2FE"/>
    <path d="M32 74h58" stroke="#0369A1" stroke-width="5" stroke-linecap="round"/>
    <circle cx="38" cy="92" r="9" fill="#0F172A"/>
    <circle cx="84" cy="92" r="9" fill="#0F172A"/>
    <circle cx="38" cy="92" r="4" fill="#CBD5E1"/>
    <circle cx="84" cy="92" r="4" fill="#CBD5E1"/>
    <path d="M89 22c-10 0-18 8-18 18 0 14 18 32 18 32s18-18 18-32c0-10-8-18-18-18Z" fill="#F472B6"/>
    <circle cx="89" cy="40" r="7" fill="#fff"/>
    <path d="M26 28h25M39 20v16" stroke="#14B8A6" stroke-width="6" stroke-linecap="round"/>
  </g>
</svg>
