<svg xmlns="http://www.w3.org/2000/svg" viewBox="0 0 128 128" role="img" aria-labelledby="title">
  <title>Mascot Kak Wicara</title>
  <defs>
    <linearGradient id="bg" x1="14" y1="14" x2="114" y2="116" gradientUnits="userSpaceOnUse">
      <stop stop-color="#FFF7ED"/>
      <stop offset="1" stop-color="#EDE9FE"/>
    </linearGradient>
    <filter id="shadow" x="-20%" y="-20%" width="140%" height="140%">
      <feDropShadow dx="0" dy="9" stdDeviation="7" flood-color="#7C2D12" flood-opacity=".18"/>
    </filter>
  </defs>
  <rect x="10" y="10" width="108" height="108" rx="32" fill="url(#bg)"/>
  <g filter="url(#shadow)">
    <path d="M36 48 42 24l17 18h11l17-18 6 24c8 8 12 18 12 30 0 25-17 39-41 39S23 103 23 78c0-12 5-22 13-30Z" fill="#FB923C"/>
    <path d="m43 36 5 11-11-2 6-9ZM85 36l-5 11 11-2-6-9Z" fill="#FED7AA"/>
    <ellipse cx="64" cy="80" rx="30" ry="27" fill="#FFEDD5"/>
    <circle cx="52" cy="72" r="9" fill="#fff"/>
    <circle cx="76" cy="72" r="9" fill="#fff"/>
    <circle cx="52" cy="72" r="4" fill="#1E293B"/>
    <circle cx="76" cy="72" r="4" fill="#1E293B"/>
    <path d="M47 72h-9M61 72h6M81 72h9" stroke="#4C1D95" stroke-width="3" stroke-linecap="round"/>
    <circle cx="52" cy="72" r="11" fill="none" stroke="#4C1D95" stroke-width="3"/>
    <circle cx="76" cy="72" r="11" fill="none" stroke="#4C1D95" stroke-width="3"/>
    <path d="m64 82-5 4 5 4 5-4-5-4Z" fill="#F472B6"/>
    <path d="M54 94c5 5 15 5 20 0" fill="none" stroke="#7C2D12" stroke-width="4" stroke-linecap="round"/>
    <path d="M29 66h-9M30 78H18M31 90h-9M99 66h9M98 78h12M97 90h9" stroke="#C2410C" stroke-width="4" stroke-linecap="round"/>
    <path d="M91 28h15c7 0 13 5 13 12s-6 12-13 12h-7l-10 8 3-10c-5-2-8-6-8-11 0-6 3-11 7-11Z" fill="#fff"/>
    <path d="M96 40h13" stroke="#8B5CF6" stroke-width="4" stroke-linecap="round"/>
  </g>
</svg>
